PathFileType	4	(X/Y/Z)	7_coords_data.trc
DataRate	CameraRate	NumFrames	NumMarkers	Units	OrigDataRate	OrigDataStartFrame	OrigNumFrames
30.0	30.0	8	21	m	30.0	31	50
Frame#	Time	THUMB_TIP	THUMB_IP	THUMB_MCP	THUMB_CMC	INDEX_TIP	INDEX_DIP	INDEX_PIP	INDEX_MCP	MIDDLE_TIP	MIDDLE_DIP	MIDDLE_PIP	MIDDLE_MCP	RING_TIP	RING_DIP	RING_PIP	RING_MCP	PINKY_TIP	PINKY_DIP	PINKY_PIP	PINKY_MCP	WRIST
X1	Y1	Z1	X2	Y2	Z2	X3	Y3	Z3	X4	Y4	Z4	X5	Y5	Z5	X6	Y6	Z6	X7	Y7	Z7	X8	Y8	Z8	X9	Y9	Z9	X10	Y10	Z10	X11	Y11	Z11	X12	Y12	Z12	X13	Y13	Z13	X14	Y14	Z14	X15	Y15	Z15	X16	Y16	Z16	X17	Y17	Z17	X18	Y18	Z18	X19	Y19	Z19	X20	Y20	Z20	X21	Y21	Z21
30	1.0	0.011864700317382813	0.015655799865722655	0.9989130249023438	-0.001861969947814941	-0.001586840033531189	1.0087999877929688	-0.02775469970703125	-0.004617690086364746	1.0205499877929687	-0.04306069946289062	0.01598740005493164	1.0308900146484374	-0.008121150016784668	-0.007623899936676026	0.895594970703125	-0.017971799850463866	-0.00681909990310669	0.9163070068359375	-0.02731399917602539	-0.005339799880981445	0.9379119873046875	-0.03719940185546875	-0.0005633779764175411	0.9734110107421875	-0.007755770206451416	0.001770359992980957	0.9969229736328125	0.008309069633483887	0.00476023006439209	0.9855419921875	0.004951230049133301	0.013697199821472168	0.9618930053710938	-0.03468289947509766	0.022334699630737306	0.9658619995117188	0.001763380050659179	0.017461799621582032	1.0039099731445313	0.01079829978942871	0.02404680061340332	0.9884080200195312	0.006686150074005127	0.03550030136108399	0.9673729858398438	-0.031048200607299806	0.04282550048828125	0.9739329833984375	0.0048207597732543945	0.08118460083007813	0.9388579711914062	-0.002089999914169311	0.07236699676513672	0.9545369873046875	-0.008314169883728028	0.06425930023193359	0.9682520141601563	-0.018199600219726563	0.052249099731445314	0.9887830200195312	-0.06842739868164062	0.03821969985961914	1.0365699462890625
31	1.0333333333333334	0.010939599990844727	0.015891099929809572	0.9994530029296875	-0.002052050113677978	-0.0020291800498962397	1.0088699951171876	-0.028257400512695312	-0.004738150119781494	1.0203800048828124	-0.04339070129394531	0.01580500030517578	1.0305	-0.006793990135192871	-0.007940320014953614	0.8961339721679688	-0.017449899673461913	-0.006914140224456787	0.9163309936523437	-0.02751729965209961	-0.005268990039825439	0.9376799926757813	-0.03753300094604492	-0.000624906003475189	0.9730549926757812	-0.0075173301696777346	0.0008874679803848261	0.9959119873046876	0.007872739791870116	0.004584060192108154	0.9855800170898438	0.004825960159301758	0.013637100219726563	0.961864013671875	-0.03494549942016602	0.022257699966430664	0.9656799926757812	0.001616790056228637	0.01698520088195801	1.0040700073242188	0.010452500343322754	0.02386949920654297	0.988572021484375	0.006533750057220459	0.035362201690673827	0.967219970703125	-0.031195499420166015	0.042701400756835935	0.9736669921875	0.005351359844207764	0.08068939971923828	0.9387919921875	-0.001865219950675964	0.07196669769287109	0.9544559936523438	-0.008300640106201173	0.06395230102539062	0.9680869750976563	-0.01840999984741211	0.05210449981689453	0.9886160278320313	-0.0688011016845703	0.038185699462890625	1.0362900390625
32	1.0666666666666667	0.01136649990081787	0.015490599632263184	0.9992260131835937	-0.0019804099798202512	-0.002189419984817505	1.0089600219726562	-0.02854960060119629	-0.004977019786834716	1.0203699951171874	-0.04344459915161133	0.015452899932861329	1.0303199462890624	-0.005014220237731934	-0.008685299873352051	0.897135986328125	-0.016760900497436525	-0.007279160022735595	0.9165239868164062	-0.027632099151611328	-0.005381410121917725	0.937427978515625	-0.0377692985534668	-0.0008656150102615351	0.972801025390625	-0.008128379821777344	0.001463170051574707	0.997573974609375	0.00760338020324707	0.004416160106658935	0.9854970092773437	0.004744540214538575	0.013467000007629395	0.9615040283203125	-0.03497949981689453	0.02201740074157715	0.9655130004882813	0.00029430800676345803	0.016955499649047853	1.0026300048828125	0.010449000358581543	0.023735599517822267	0.988594970703125	0.006437150001525879	0.03517490005493164	0.9670540161132812	-0.03134420013427734	0.042467700958251954	0.973572998046875	0.005798079967498779	0.08022329711914063	0.9387329711914062	-0.0015436500310897822	0.07159369659423828	0.95435400390625	-0.008209600448608398	0.06367200088500977	0.9679600219726563	-0.018562999725341797	0.05190539932250977	0.988489013671875	-0.06883300018310547	0.037979400634765625	1.0361700439453125
33	1.1	0.010430299758911132	0.015730299949645997	0.9992999877929688	-0.002262830018997192	-0.002672669887542724	1.008510009765625	-0.028240800857543946	-0.005361800193786621	1.02025	-0.04378239822387695	0.015098699569702148	1.030219970703125	-0.003067310094833374	-0.010580100059509278	0.8989920043945312	-0.016249099731445314	-0.008356220245361328	0.91697900390625	-0.028315099716186523	-0.005926539897918701	0.9371619873046875	-0.038312000274658205	-0.001349810004234314	0.9726019897460938	-0.007971829891204834	0.0006915510296821591	0.9957680053710938	0.007061789989471435	0.003964709997177124	0.9850349731445313	0.004437950134277344	0.012819199562072755	0.9608400268554688	-0.03520050048828125	0.021413200378417967	0.9652620239257812	0.000791589021682739	0.016807600021362303	1.0029199829101563	0.01004199981689453	0.023199499130249022	0.98789697265625	0.006071859836578369	0.03462689971923828	0.9665490112304688	-0.031582099914550785	0.04190340042114258	0.9732760009765625	0.0065134201049804686	0.07908480072021484	0.938375	-0.001260400056838989	0.07072059631347656	0.9539550170898438	-0.008181489944458008	0.06297620010375976	0.9675369873046875	-0.018778799057006836	0.05140879821777344	0.9880260009765625	-0.06891899871826172	0.03759049987792969	1.03618994140625
34	1.1333333333333333	0.009735150337219238	0.015047200202941894	0.9983709716796875	-0.002789350032806396	-0.0032277600765228272	1.00772998046875	-0.02873550033569336	-0.006387410163879394	1.0193099975585938	-0.04364239883422852	0.014601099967956542	1.02972998046875	-0.0008747869729995721	-0.013323699951171875	0.9017960205078125	-0.015830699920654296	-0.00996323013305664	0.9175700073242188	-0.02930970001220703	-0.006698180198669434	0.936583984375	-0.03926800155639648	-0.0019498000144958492	0.9720650024414063	-0.008958569526672363	0.000523068010807037	0.9955819702148437	0.0064531898498535155	0.0032079699039459226	0.9836599731445312	0.0036069200038909913	0.011651100158691407	0.9597559814453125	-0.03581430053710938	0.020769500732421876	0.9648369750976562	-0.000444810986518859	0.016181400299072266	1.0018900146484375	0.00939365005493164	0.02238479995727539	0.9870599975585937	0.005355649948120117	0.033680900573730466	0.9654660034179687	-0.03194890022277832	0.041237598419189454	0.9727520141601562	0.0078367600440979	0.07753269958496094	0.937864990234375	-0.000511587977409362	0.0695458984375	0.9535009765625	-0.008006509780883788	0.06205699920654297	0.966905029296875	-0.019101600646972656	0.05082500076293945	0.9873060302734376	-0.06858360290527343	0.037144001007080076	1.0358499755859376
35	1.1666666666666667	0.009073760032653809	0.014796099662780761	0.9959810180664063	-0.003282649993896484	-0.0037160100936889646	1.0055	-0.02925040054321289	-0.006987559795379639	1.0179400024414063	-0.043994998931884764	0.014097299575805664	1.0288299560546874	0.001557860016822815	-0.015492300033569335	0.905448974609375	-0.015148099899291992	-0.011168600082397461	0.918281005859375	-0.03042020034790039	-0.0071417298316955565	0.9354130249023438	-0.040471401214599606	-0.002271739959716797	0.9707230224609374	-0.010528100013732911	0.000289626985788345	0.9937410278320312	0.005003389835357666	0.002797840118408203	0.9810750122070313	0.001827890038490295	0.011056099891662598	0.9572459716796875	-0.037207298278808594	0.020391700744628906	0.9637899780273438	-0.001137400031089782	0.015606399536132812	1.0008699951171875	0.0077831301689147946	0.022101200103759766	0.9848359985351562	0.003664880037307739	0.03322650146484375	0.9634840087890625	-0.033352798461914065	0.040999000549316406	0.9714039916992188	0.007929160118103027	0.07651080322265626	0.9363510131835937	-0.001040220022201538	0.0689520034790039	0.951822021484375	-0.008953740119934082	0.061772598266601565	0.9652750244140625	-0.0203218994140625	0.05073690032958984	0.9858400268554688	-0.06828340148925781	0.0368109016418457	1.035719970703125
36	1.2	0.008649470329284668	0.014630800247192382	0.9947529907226562	-0.003389810085296631	-0.003703459978103637	1.0040800170898438	-0.02934250068664551	-0.006865039825439453	1.0170599975585937	-0.044258499145507814	0.013959199905395507	1.028010009765625	0.004476759910583496	-0.0162455997467041	0.9091110229492188	-0.013447699546813964	-0.011571999549865722	0.9193699951171875	-0.030249799728393555	-0.007252699851989746	0.9347009887695312	-0.04139830017089844	-0.0022851600646972654	0.9697470092773437	-0.011040200233459472	0.00046907499432563706	0.9923829956054687	0.0040810399055480956	0.003123759984970092	0.9791729736328125	0.000305806010961532	0.011195500373840333	0.9551890258789062	-0.038528400421142577	0.020400699615478517	0.9628880004882813	-0.001152959942817688	0.016068899154663085	0.9990250244140625	0.0067141599655151365	0.022212200164794922	0.9828900146484375	0.002075639963150024	0.03343119812011719	0.9616959838867187	-0.034809898376464844	0.041021701812744144	0.9703610229492188	0.008327489852905273	0.07572899627685546	0.9353920288085937	-0.001386510014533996	0.06866089630126954	0.9505570068359375	-0.009804710388183594	0.0619031982421875	0.9641820068359375	-0.0220403995513916	0.051152599334716796	0.9844769897460938	-0.06832589721679687	0.03647140121459961	1.0351800537109375
37	1.2333333333333334	0.01021969985961914	0.013465499877929688	0.9920709838867188	-0.003007349967956543	-0.00378846001625061	1.0023300170898437	-0.02861949920654297	-0.007004209995269775	1.016030029296875	-0.04427489852905273	0.013870499610900878	1.02731005859375	0.00805714988708496	-0.01497760009765625	0.9125709838867188	-0.010795599937438964	-0.010750399589538575	0.9209199829101562	-0.028951499938964845	-0.006871379852294922	0.9345830078125	-0.042752201080322266	-0.002496900081634521	0.9689439697265625	-0.010934000015258788	0.000408403992652893	0.9899669799804688	0.003174489974975586	0.00339778995513916	0.976781982421875	-0.001435050010681152	0.01133489990234375	0.9530360107421875	-0.04005950164794922	0.020106199264526368	0.96206201171875	-0.001357149958610534	0.015684200286865235	0.9973179931640626	0.005908820152282715	0.022262100219726563	0.9805449829101562	0.000152375996112823	0.03329280090332031	0.9595440063476562	-0.036274200439453126	0.040673301696777346	0.9692639770507813	0.010358400344848633	0.07346620178222656	0.9352340087890625	-0.0006653000116348261	0.06737899780273438	0.9499190063476562	-0.01042650032043457	0.061295299530029296	0.9629660034179688	-0.023885099411010743	0.051412399291992185	0.9831849975585938	-0.06811080169677734	0.03622549819946289	1.0351500244140626
